<svg width="16" height="13" viewBox="0 0 16 13" fill="none" xmlns="http://www.w3.org/2000/svg">
<path fill-rule="evenodd" clip-rule="evenodd" d="M0.431885 1.36363C0.431885 0.949419 0.767671 0.613632 1.18188 0.613632H15.1819C15.5961 0.613632 15.9319 0.949419 15.9319 1.36363C15.9319 1.77785 15.5961 2.11363 15.1819 2.11363H1.18188C0.767671 2.11363 0.431885 1.77785 0.431885 1.36363ZM0.431885 6.36363C0.431885 5.94942 0.767671 5.61363 1.18188 5.61363H15.1819C15.5961 5.61363 15.9319 5.94942 15.9319 6.36363C15.9319 6.77785 15.5961 7.11363 15.1819 7.11363H1.18188C0.767671 7.11363 0.431885 6.77785 0.431885 6.36363ZM1.18188 10.6136C0.767671 10.6136 0.431885 10.9494 0.431885 11.3636C0.431885 11.7778 0.767671 12.1136 1.18188 12.1136H15.1819C15.5961 12.1136 15.9319 11.7778 15.9319 11.3636C15.9319 10.9494 15.5961 10.6136 15.1819 10.6136H1.18188Z" fill="#549480"/>
</svg>
