<svg width="18" height="18" viewBox="0 0 18 18" fill="none" xmlns="http://www.w3.org/2000/svg">
<path fill-rule="evenodd" clip-rule="evenodd" d="M12.6969 3.62152C10.1908 1.11541 6.12762 1.11541 3.62152 3.62152C1.11541 6.12762 1.11541 10.1908 3.62152 12.6969C6.10438 15.1798 10.1156 15.2028 12.6268 12.766C12.6471 12.7406 12.669 12.7161 12.6925 12.6925C12.7161 12.669 12.7406 12.6471 12.766 12.6268C15.2028 10.1156 15.1798 6.10438 12.6969 3.62152ZM14.512 13.2803C17.1015 10.0761 16.907 5.36811 13.9287 2.38978C10.7423 -0.796594 5.57616 -0.796594 2.38978 2.38978C-0.796594 5.57616 -0.796594 10.7423 2.38978 13.9287C5.36811 16.907 10.0761 17.1015 13.2803 14.512L16.5132 17.7449C16.8533 18.085 17.4048 18.085 17.7449 17.7449C18.085 17.4048 18.085 16.8533 17.7449 16.5132L14.512 13.2803Z" fill="#2D3131"/>
</svg>
