<svg width="196" height="56" viewBox="0 0 196 56" fill="none" xmlns="http://www.w3.org/2000/svg">
<path fill-rule="evenodd" clip-rule="evenodd" d="M79.2785 53.5965C79.4166 53.5965 79.4889 53.683 79.4889 53.7962V53.8095C79.456 54.3422 79.3048 54.7949 79.0417 55.1678L79.3968 55.6205C79.4363 55.6738 79.456 55.7204 79.456 55.7736C79.456 55.8802 79.364 55.9734 79.2588 55.9734C79.193 55.9734 79.1272 55.9334 79.0615 55.8469L78.7524 55.4607C78.4828 55.8136 78.1211 55.9867 77.6542 55.9867C77.3189 55.9867 77.0427 55.8868 76.8257 55.6937C76.6087 55.5007 76.4969 55.2543 76.4969 54.9547C76.4969 54.4088 76.8191 54.0559 77.3452 53.6964C77.0558 53.5965 76.8717 53.3501 76.8717 53.0106C76.8717 52.7909 76.9506 52.6111 77.1084 52.4713C77.2597 52.3315 77.4438 52.2582 77.6608 52.2582C77.8778 52.2582 78.0619 52.3248 78.2198 52.4646C78.3776 52.6045 78.4565 52.7842 78.4565 53.0106C78.4565 53.3435 78.2132 53.6431 77.9239 53.6964L78.7919 54.8282C78.9563 54.5286 79.0549 54.1891 79.0812 53.7962C79.0878 53.683 79.1601 53.5965 79.2785 53.5965ZM77.1742 55.3742C77.3123 55.5073 77.4767 55.5739 77.6674 55.5739C78.0291 55.5739 78.3053 55.4208 78.5025 55.1278L77.6082 53.936C77.1874 54.2623 76.9572 54.5286 76.9572 54.8682C76.9638 55.0746 77.0361 55.241 77.1742 55.3742ZM77.2597 53.0106C77.24 53.3568 77.72 53.5632 77.9567 53.3035C78.1146 53.1437 78.1146 52.8841 77.9567 52.7176C77.72 52.458 77.24 52.6511 77.2597 53.0106ZM48.6482 55.4674C48.2996 55.1212 48.1287 54.6684 48.1287 54.1291C48.1287 53.6032 48.2996 53.1571 48.6416 52.7975C48.9835 52.438 49.4241 52.2649 49.9502 52.2649C50.4762 52.2649 50.9102 52.438 51.2588 52.7842C51.6007 53.1304 51.7717 53.5832 51.7717 54.1225C51.7717 54.6551 51.6007 55.1012 51.2522 55.4541C50.9037 55.8136 50.4697 55.9867 49.9502 55.9867C49.4241 55.9867 48.9901 55.8136 48.6482 55.4674ZM48.977 53.0838C48.7139 53.3568 48.589 53.703 48.589 54.1225C48.589 54.5286 48.7205 54.8748 48.9835 55.1544C49.2466 55.4341 49.5688 55.5739 49.9568 55.5739C50.3579 55.5739 50.6867 55.4341 50.9431 55.1611C51.193 54.8881 51.318 54.5419 51.318 54.1291C51.318 53.7097 51.1864 53.3635 50.9234 53.0905C50.6604 52.8175 50.3381 52.6843 49.9502 52.6843C49.5556 52.6777 49.2334 52.8109 48.977 53.0838ZM44.4593 52.2849C44.341 52.2849 44.2423 52.3781 44.2423 52.4979V53.8761H42.2762V52.4979C42.2762 52.3781 42.1775 52.2849 42.0592 52.2849C41.9408 52.2849 41.8422 52.3781 41.8422 52.4979V55.7537C41.8422 55.8735 41.9342 55.9734 42.0592 55.9734C42.1775 55.9734 42.2762 55.8735 42.2762 55.7537V54.2956H44.2423V55.7537C44.2423 55.8735 44.3344 55.9734 44.4593 55.9734C44.5777 55.9734 44.6763 55.8735 44.6763 55.7537V52.4979C44.6763 52.3781 44.5777 52.2849 44.4593 52.2849ZM38.0939 52.6178C37.8835 52.4047 37.5415 52.3048 37.0747 52.3048C37.0013 52.3048 36.9158 52.3061 36.8182 52.3075C36.6884 52.3093 36.5371 52.3115 36.3645 52.3115C36.2461 52.3115 36.1475 52.4114 36.1475 52.5312V55.7537C36.1475 55.8735 36.2395 55.9734 36.3645 55.9734C36.4828 55.9734 36.5815 55.8735 36.5815 55.7537V54.5419C36.7459 54.5552 36.9234 54.5619 37.1207 54.5619C37.535 54.5619 37.8506 54.4487 38.0742 54.229C38.2912 54.0093 38.403 53.7363 38.403 53.4234C38.403 53.0971 38.2978 52.8308 38.0939 52.6178ZM36.6512 54.1277L36.5749 54.1225V52.7243L36.7091 52.7202C36.871 52.7152 37.0049 52.711 37.1141 52.711C37.6665 52.711 37.9361 52.9773 37.9361 53.4167C37.9361 53.8761 37.6205 54.1491 37.0944 54.1491C36.963 54.1491 36.8167 54.1391 36.6512 54.1277ZM57.8017 52.4913V55.1678L55.6909 52.4713C55.5923 52.3448 55.5002 52.2849 55.4147 52.2849C55.2898 52.2849 55.2174 52.3914 55.2174 52.5312V55.767C55.2174 55.8735 55.3161 55.9667 55.4213 55.9667C55.5265 55.9667 55.6251 55.8735 55.6251 55.767V53.0838L57.7623 55.8069C57.8544 55.9135 57.9398 55.9667 58.0253 55.9667C58.1305 55.9667 58.2094 55.8735 58.2094 55.747V52.4913C58.2094 52.3847 58.1108 52.2915 58.0056 52.2915C57.9004 52.2915 57.8017 52.3847 57.8017 52.4913ZM62.3785 55.5206H63.8121C63.9173 55.5206 64.0093 55.6205 64.0093 55.727C64.0093 55.8336 63.9173 55.9334 63.8121 55.9334H62.1549C62.0366 55.9334 61.9379 55.8336 61.9379 55.7137V52.5312C61.9379 52.4114 62.0366 52.3115 62.1549 52.3115H63.7595C63.8647 52.3115 63.9567 52.4114 63.9567 52.5179C63.9567 52.6244 63.8647 52.7243 63.7595 52.7243H62.372V53.8961H63.6016C63.7069 53.8961 63.7989 53.996 63.7989 54.1025C63.7989 54.209 63.7069 54.3089 63.6016 54.3089H62.372V55.5206H62.3785ZM67.2381 55.4274C67.2381 55.494 67.2578 55.5406 67.2973 55.5739C67.6195 55.8469 67.9483 55.9867 68.2837 55.9933C68.619 55.9933 68.8952 55.9001 69.1188 55.7204C69.3358 55.5406 69.4476 55.3076 69.4476 55.0146C69.4476 54.3448 68.9358 54.1347 68.4659 53.9417C68.0671 53.778 67.6984 53.6266 67.6984 53.217C67.6984 52.8907 67.9483 52.6843 68.3428 52.6843C68.5401 52.6843 68.7374 52.7443 68.9149 52.8508C68.961 52.8708 69.0004 52.8841 69.0333 52.8841C69.0991 52.8841 69.1582 52.8508 69.2043 52.7842C69.224 52.7576 69.2372 52.7243 69.2372 52.6777C69.2372 52.6045 69.2174 52.5445 69.1582 52.5112C68.9084 52.3448 68.6322 52.2649 68.3231 52.2649C67.9877 52.2649 67.7313 52.3515 67.534 52.5312C67.3433 52.711 67.2447 52.944 67.2447 53.2103C67.2447 53.8548 67.7505 54.0699 68.2181 54.2688C68.6201 54.4397 68.9939 54.5987 68.9939 55.008C68.9939 55.3608 68.6914 55.5739 68.2968 55.5739C68.0864 55.5739 67.8431 55.474 67.5603 55.261C67.5209 55.2343 67.488 55.221 67.4419 55.221C67.3762 55.221 67.3236 55.2477 67.2841 55.3009C67.2512 55.3342 67.2381 55.3808 67.2381 55.4274ZM87.2287 54.8415H88.8595L89.2606 55.8269C89.3001 55.9268 89.3658 55.9734 89.4645 55.9734C89.596 55.9734 89.6749 55.8735 89.6749 55.7537V55.7536C89.6749 55.727 89.6749 55.7004 89.6618 55.6671L88.3005 52.4713C88.2545 52.3581 88.1756 52.2982 88.0572 52.2982C87.9389 52.2982 87.86 52.3514 87.8074 52.4713L86.4396 55.6804C86.4264 55.7204 86.4199 55.7537 86.4199 55.7736C86.4199 55.8802 86.4988 55.9734 86.6237 55.9734C86.7158 55.9734 86.7881 55.9268 86.821 55.8269L87.2287 54.8415ZM88.0507 52.8774L88.6951 54.4221H87.4062L88.0507 52.8774ZM95.1131 52.8441C94.9159 52.7376 94.666 52.6777 94.3898 52.6777C94.0018 52.6777 93.6862 52.8108 93.4363 53.0838C93.1864 53.3501 93.0615 53.6964 93.0615 54.1291C93.0615 54.5552 93.1864 54.9081 93.4494 55.1744C93.7059 55.4407 94.0413 55.5806 94.4556 55.5806C94.7317 55.5806 94.975 55.514 95.1986 55.3808C95.2315 55.3542 95.2775 55.3475 95.3236 55.3475C95.3893 55.3475 95.4419 55.3742 95.4748 55.4208C95.5011 55.4474 95.5077 55.4807 95.5077 55.5273C95.5077 55.5939 95.4748 55.6538 95.409 55.7004C95.1263 55.9001 94.7975 56 94.4095 56C93.8703 56 93.4363 55.8269 93.1009 55.4873C92.7656 55.1478 92.5946 54.7017 92.5946 54.1358C92.5946 53.6031 92.759 53.1571 93.0812 52.8042C93.4034 52.4513 93.8308 52.2782 94.3766 52.2782C94.7383 52.2782 95.054 52.3581 95.317 52.5179C95.3893 52.5645 95.4222 52.6244 95.4222 52.691C95.4222 52.7243 95.409 52.7576 95.3893 52.7909C95.3564 52.8508 95.2973 52.8841 95.2249 52.8841C95.212 52.8788 95.198 52.8746 95.1834 52.8702C95.161 52.8635 95.1371 52.8562 95.1131 52.8441ZM100.203 52.6777C100.479 52.6777 100.729 52.7376 100.926 52.8441C100.95 52.8544 100.972 52.8611 100.991 52.8671C101.009 52.8727 101.025 52.8776 101.038 52.8841C101.11 52.8841 101.169 52.8508 101.202 52.7909C101.222 52.7576 101.235 52.7243 101.235 52.691C101.235 52.6244 101.202 52.5645 101.13 52.5179C100.867 52.3581 100.551 52.2782 100.19 52.2782C99.6439 52.2782 99.2165 52.4513 98.8942 52.8042C98.572 53.1571 98.4076 53.6031 98.4076 54.1358C98.4076 54.7017 98.5786 55.1478 98.914 55.4873C99.2493 55.8269 99.6833 56 100.223 56C100.611 56 100.939 55.9001 101.222 55.7004C101.288 55.6538 101.321 55.5939 101.321 55.5273C101.321 55.4807 101.314 55.4474 101.288 55.4208C101.255 55.3742 101.202 55.3475 101.137 55.3475C101.091 55.3475 101.045 55.3542 101.012 55.3808C100.788 55.514 100.545 55.5806 100.269 55.5806C99.8543 55.5806 99.5189 55.4407 99.2625 55.1744C98.9995 54.9081 98.8745 54.5552 98.8745 54.1291C98.8745 53.6964 98.9995 53.3501 99.2493 53.0838C99.4992 52.8108 99.8149 52.6777 100.203 52.6777ZM105.089 55.5206H106.522C106.627 55.5206 106.72 55.6205 106.72 55.727C106.72 55.8336 106.627 55.9334 106.522 55.9334H104.865C104.747 55.9334 104.648 55.8336 104.648 55.7137V52.5312C104.648 52.4114 104.747 52.3115 104.865 52.3115H106.47C106.575 52.3115 106.667 52.4114 106.667 52.5179C106.667 52.6244 106.575 52.7243 106.47 52.7243H105.082V53.8961H106.312C106.417 53.8961 106.509 53.996 106.509 54.1025C106.509 54.209 106.417 54.3089 106.312 54.3089H105.082V55.5206H105.089ZM109.948 55.4274C109.948 55.494 109.968 55.5406 110.007 55.5739C110.33 55.8469 110.658 55.9867 110.987 55.9933C111.323 55.9933 111.599 55.9001 111.822 55.7204C112.039 55.5406 112.151 55.3076 112.151 55.0146C112.151 54.3448 111.639 54.1347 111.17 53.9417C110.771 53.778 110.402 53.6266 110.402 53.217C110.402 52.8907 110.652 52.6843 111.046 52.6843C111.244 52.6843 111.441 52.7443 111.619 52.8508C111.665 52.8708 111.704 52.8841 111.737 52.8841C111.809 52.8841 111.862 52.8508 111.908 52.7842C111.934 52.7576 111.947 52.7243 111.947 52.6777C111.947 52.6045 111.921 52.5445 111.868 52.5112C111.619 52.3448 111.342 52.2649 111.033 52.2649C110.698 52.2649 110.441 52.3515 110.244 52.5312C110.053 52.711 109.955 52.944 109.955 53.2103C109.955 53.8548 110.461 54.0699 110.928 54.2688C111.33 54.4397 111.704 54.5987 111.704 55.008C111.704 55.3608 111.402 55.5739 111.007 55.5739C110.797 55.5739 110.553 55.474 110.27 55.261C110.231 55.2343 110.198 55.221 110.152 55.221C110.086 55.221 110.034 55.2477 109.994 55.3009C109.961 55.3342 109.948 55.3808 109.948 55.4274ZM116.084 55.5739C116.044 55.5406 116.024 55.494 116.024 55.4274C116.024 55.3808 116.037 55.3342 116.07 55.3009C116.11 55.2477 116.162 55.221 116.228 55.221C116.274 55.221 116.307 55.2343 116.347 55.261C116.629 55.474 116.873 55.5739 117.083 55.5739C117.478 55.5739 117.78 55.3608 117.78 55.008C117.78 54.5987 117.406 54.4397 117.004 54.2688C116.537 54.0699 116.031 53.8548 116.031 53.2103C116.031 52.944 116.13 52.711 116.32 52.5312C116.518 52.3515 116.774 52.2649 117.109 52.2649C117.418 52.2649 117.695 52.3448 117.944 52.5112C117.997 52.5445 118.023 52.6045 118.023 52.6777C118.023 52.7243 118.01 52.7576 117.984 52.7842C117.938 52.8508 117.885 52.8841 117.813 52.8841C117.78 52.8841 117.741 52.8708 117.695 52.8508C117.517 52.7443 117.32 52.6843 117.122 52.6843C116.728 52.6843 116.478 52.8907 116.478 53.217C116.478 53.6266 116.847 53.778 117.246 53.9417C117.715 54.1347 118.227 54.3448 118.227 55.0146C118.227 55.3076 118.115 55.5406 117.898 55.7204C117.675 55.9001 117.399 55.9933 117.063 55.9933C116.741 55.9867 116.406 55.8469 116.084 55.5739ZM121.765 54.1291C121.765 54.6684 121.936 55.1212 122.285 55.4674C122.627 55.8136 123.061 55.9867 123.587 55.9867C124.106 55.9867 124.54 55.8136 124.889 55.4541C125.237 55.1012 125.408 54.6551 125.408 54.1225C125.408 53.5832 125.237 53.1304 124.895 52.7842C124.547 52.438 124.113 52.2649 123.587 52.2649C123.061 52.2649 122.62 52.438 122.278 52.7975C121.936 53.1571 121.765 53.6032 121.765 54.1291ZM122.225 54.1225C122.225 53.703 122.35 53.3568 122.613 53.0838C122.876 52.8109 123.199 52.6777 123.587 52.6843C123.975 52.6843 124.297 52.8175 124.56 53.0905C124.823 53.3635 124.954 53.7097 124.954 54.1291C124.954 54.5419 124.829 54.8881 124.58 55.1611C124.323 55.4341 123.994 55.5739 123.593 55.5739C123.205 55.5739 122.883 55.4341 122.62 55.1544C122.357 54.8748 122.225 54.5286 122.225 54.1225ZM131.122 55.9734C131.044 55.9734 130.971 55.9334 130.905 55.8469L129.88 54.4886H129.294V55.7537C129.294 55.8735 129.196 55.9734 129.077 55.9734C128.952 55.9734 128.86 55.8735 128.86 55.7537V52.5312C128.86 52.4114 128.959 52.3115 129.077 52.3115C129.206 52.3091 129.32 52.3068 129.419 52.3047C129.599 52.301 129.731 52.2982 129.82 52.2982C130.669 52.2982 131.09 52.6577 131.09 53.3768C131.09 53.6431 131.011 53.8628 130.866 54.0426C130.715 54.2223 130.531 54.3422 130.314 54.4021L131.261 55.6205C131.293 55.6671 131.32 55.7204 131.32 55.7736C131.326 55.8802 131.241 55.9734 131.122 55.9734ZM129.301 54.0759H129.82C130.037 54.0759 130.228 54.0159 130.393 53.8828C130.55 53.7563 130.636 53.5965 130.636 53.3834C130.636 52.9373 130.353 52.7176 129.801 52.7176C129.724 52.7176 129.611 52.7212 129.469 52.7257L129.301 52.7309V54.0759ZM135.042 52.2849C134.923 52.2849 134.825 52.3781 134.825 52.4979V55.7537C134.825 55.8735 134.917 55.9734 135.042 55.9734C135.16 55.9734 135.259 55.8735 135.259 55.7537V52.4979C135.259 52.3781 135.16 52.2849 135.042 52.2849ZM139.52 55.5206H140.953C141.059 55.5206 141.151 55.6205 141.151 55.727C141.151 55.8336 141.059 55.9334 140.953 55.9334H139.296C139.178 55.9334 139.079 55.8336 139.079 55.7137V52.5312C139.079 52.4114 139.178 52.3115 139.296 52.3115H140.901C141.006 52.3115 141.098 52.4114 141.098 52.5179C141.098 52.6244 141.006 52.7243 140.901 52.7243H139.513V53.8961H140.743C140.848 53.8961 140.94 53.996 140.94 54.1025C140.94 54.209 140.848 54.3089 140.743 54.3089H139.513V55.5206H139.52ZM144.386 55.4274C144.386 55.494 144.406 55.5406 144.445 55.5739C144.761 55.8469 145.096 55.9867 145.425 55.9933C145.76 55.9933 146.037 55.9001 146.26 55.7204C146.477 55.5406 146.589 55.3076 146.589 55.0146C146.589 54.3448 146.077 54.1347 145.607 53.9417C145.208 53.778 144.84 53.6266 144.84 53.217C144.84 52.8907 145.09 52.6843 145.484 52.6843C145.681 52.6843 145.879 52.7443 146.056 52.8508C146.102 52.8708 146.142 52.8841 146.175 52.8841C146.247 52.8841 146.3 52.8508 146.346 52.7842C146.372 52.7576 146.385 52.7243 146.385 52.6777C146.385 52.6045 146.365 52.5445 146.306 52.5112C146.056 52.3448 145.78 52.2649 145.471 52.2649C145.136 52.2649 144.873 52.3515 144.682 52.5312C144.491 52.711 144.393 52.944 144.393 53.2103C144.393 53.8548 144.898 54.0699 145.366 54.2688C145.768 54.4397 146.142 54.5987 146.142 55.008C146.142 55.3608 145.839 55.5739 145.445 55.5739C145.234 55.5739 144.991 55.474 144.708 55.261C144.669 55.2343 144.636 55.221 144.59 55.221C144.524 55.221 144.471 55.2477 144.432 55.3009C144.399 55.3342 144.386 55.3808 144.386 55.4274Z" fill="#2D3131"/>
<path d="M181.25 10.9723L177.463 4.54071C177.114 3.94816 176.476 3.58197 175.792 3.58197H175.766L168.375 3.6885C167.684 3.70181 167.046 4.08797 166.704 4.69385L163.101 11.232C162.766 11.8445 162.772 12.5968 163.127 13.196L166.915 19.6276C167.27 20.2268 167.921 20.593 168.611 20.5864L176.003 20.4798C176.693 20.4665 177.331 20.0804 177.666 19.4678L181.277 12.9364C181.612 12.3239 181.599 11.5715 181.25 10.9723ZM175.24 17.2641L169.282 17.3506L166.231 12.1707L169.138 6.90429L175.095 6.81773L178.146 11.9976L175.24 17.2641Z" fill="#D8E3A4"/>
<path d="M195.783 20.1004L192.738 14.9338C192.455 14.4544 191.943 14.1615 191.39 14.1615H191.37L185.426 14.2414C184.873 14.2547 184.354 14.5609 184.084 15.0536L181.184 20.3068C180.915 20.7994 180.921 21.4053 181.211 21.8913L184.255 27.0579C184.538 27.5439 185.058 27.8369 185.617 27.8302L191.561 27.7437C192.113 27.737 192.633 27.4241 192.903 26.9381L195.803 21.685C196.072 21.1923 196.066 20.5864 195.783 20.1004ZM190.575 24.5346L186.511 24.5878L184.426 21.0524L186.412 17.4572L190.476 17.3972L192.561 20.9393L190.575 24.5346Z" fill="#3AC1EE"/>
<path d="M193.481 4.56735L191.14 0.592557C190.923 0.22637 190.529 0 190.108 0H190.088L185.518 0.0665795C185.09 0.0732374 184.696 0.306266 184.486 0.685769L182.256 4.72714C182.046 5.10665 182.052 5.5727 182.276 5.94555L184.617 9.92034C184.834 10.2932 185.235 10.5196 185.663 10.5129L190.233 10.4463C190.66 10.4463 191.061 10.2066 191.265 9.82713L193.494 5.78576C193.705 5.40625 193.698 4.9402 193.481 4.56735ZM189.135 7.38367L186.682 7.42361L185.426 5.29307L186.623 3.12924L189.075 3.08929L190.325 5.21983L189.135 7.38367Z" fill="#73B5A1"/>
<path fill-rule="evenodd" clip-rule="evenodd" d="M18.8332 32.4975C18.3861 31.3057 17.7548 30.2604 16.946 29.3616C16.1371 28.4627 15.1771 27.757 14.0526 27.231C12.9347 26.7117 11.6984 26.452 10.357 26.452C9.18647 26.452 8.06857 26.7117 7.01643 27.231C6.78649 27.3449 6.5711 27.4884 6.35673 27.6311L6.3567 27.6311L6.35667 27.6311L6.35664 27.6312L6.35661 27.6312L6.35658 27.6312L6.35655 27.6312L6.35652 27.6312C6.28283 27.6803 6.20927 27.7293 6.13527 27.777V23.2829C6.13527 22.8501 6.05636 22.4439 5.89196 22.0644C5.72757 21.6916 5.51056 21.3587 5.2278 21.0724C4.94504 20.7861 4.62282 20.5664 4.248 20.4066C3.87975 20.2468 3.4852 20.1669 3.06435 20.1669C2.63692 20.1669 2.22921 20.2468 1.85439 20.4066C1.47957 20.5664 1.15077 20.7861 0.874588 21.0724C0.598403 21.3587 0.387975 21.6849 0.230155 22.0644C0.0789102 22.4439 0 22.8501 0 23.2829V44.4951C0 45.0477 0.138093 45.4738 0.420855 45.7601C0.703616 46.053 1.12447 46.1929 1.70315 46.1929C2.2884 46.1929 2.78816 45.9998 3.19586 45.6203C3.60357 45.2408 3.91921 44.6748 4.14279 43.9358L4.28746 43.5763C4.9845 44.322 5.79333 44.9478 6.74682 45.4072C7.82526 45.9265 9.03522 46.1862 10.3635 46.1862C11.705 46.1862 12.9347 45.9265 14.0592 45.4072C15.1771 44.8879 16.1437 44.1821 16.9525 43.29C17.7614 42.3978 18.3927 41.3525 18.8398 40.1541C19.287 38.9557 19.5171 37.6773 19.5171 36.3125C19.504 34.9676 19.2804 33.6892 18.8332 32.4975ZM13.0925 37.7972C12.9084 38.2632 12.6585 38.676 12.3297 39.0222C12.0009 39.3751 11.6195 39.6481 11.1789 39.8545C10.7384 40.0609 10.2583 40.1608 9.75199 40.1608C9.24565 40.1608 8.76561 40.0609 8.32503 39.8545C7.88445 39.6481 7.50305 39.3751 7.18083 39.0222C6.85861 38.676 6.60873 38.2632 6.41803 37.7972C6.22733 37.3311 6.13527 36.8384 6.13527 36.3258C6.13527 35.8131 6.22733 35.3204 6.41803 34.8544C6.60873 34.3883 6.85861 33.9822 7.18083 33.636C7.50305 33.2897 7.88445 33.0168 8.32503 32.817C8.76561 32.6106 9.24565 32.5108 9.75199 32.5108C10.2583 32.5108 10.7384 32.6106 11.1789 32.817C11.6195 33.0234 12.0075 33.2964 12.3297 33.636C12.6585 33.9822 12.9084 34.3817 13.0925 34.8544C13.2766 35.3271 13.3687 35.8131 13.3687 36.3258C13.3687 36.8384 13.2766 37.3311 13.0925 37.7972ZM27.1122 43.7694C27.1011 43.7581 27.0335 43.6134 26.9055 43.3394L26.8295 43.1768L26.7345 42.9733C26.5719 42.6247 26.3715 42.1951 26.1259 41.6921C25.8299 41.0862 25.5012 40.3938 25.1395 39.6215C24.9871 39.296 24.8323 38.9682 24.6762 38.6375L24.6762 38.6374C24.4619 38.1834 24.245 37.724 24.0282 37.2579C23.1273 35.3737 22.1212 33.2365 20.9967 30.8463C20.8126 30.4401 20.7139 30.0207 20.6942 29.5879C20.6745 29.1618 20.7205 28.7557 20.8389 28.3828C20.9572 28.0033 21.1479 27.6638 21.4044 27.3642C21.6674 27.0579 21.9897 26.8182 22.3842 26.6318C22.7722 26.4454 23.1865 26.3389 23.6139 26.3122C24.0413 26.2856 24.449 26.3388 24.837 26.472C25.2184 26.6052 25.5669 26.8116 25.876 27.0979C26.185 27.3841 26.4152 27.7437 26.573 28.1764L30.2687 38.3298C31.426 35.2272 32.3006 32.8303 32.8858 31.1259C33.4711 29.4215 33.8459 28.4028 33.9972 28.0566C34.1681 27.6771 34.3983 27.3442 34.7008 27.0646C35.0033 26.7849 35.3386 26.5852 35.7069 26.452C36.0817 26.3189 36.4697 26.2656 36.8905 26.2922C37.3048 26.3189 37.7257 26.4321 38.1399 26.6251C38.3504 26.7317 38.5805 26.8981 38.8436 27.1178C39.1066 27.3442 39.3236 27.6305 39.5077 27.99C39.6918 28.3496 39.7971 28.7623 39.8234 29.2351C39.8497 29.7078 39.7247 30.2471 39.4551 30.8396L31.6956 47.9372C31.1235 49.2022 30.2621 50.1676 29.1179 50.8334C27.9737 51.4992 26.6585 51.8454 25.1724 51.8721C24.1268 51.8721 23.3048 51.5924 22.6933 51.0398C22.0817 50.4872 21.7726 49.7415 21.7726 48.8028C21.7726 48.1436 21.937 47.6509 22.2593 47.3314C22.5815 47.0118 22.976 46.7654 23.4429 46.599C23.9032 46.4325 24.3833 46.306 24.883 46.2195C25.3762 46.1329 25.8036 45.9931 26.1522 45.7934L27.1122 43.7694ZM54.6585 27.4907C54.9281 27.757 55.1385 28.0832 55.2963 28.4494C55.4476 28.8223 55.5265 29.2217 55.5331 29.6545C55.5331 30.0673 55.4542 30.4535 55.2963 30.813C55.1385 31.1725 54.9281 31.4921 54.6585 31.7717C54.3955 32.0514 54.0732 32.2644 53.7116 32.4242C53.3499 32.584 52.9553 32.6639 52.5411 32.6639H51.3508V43.0769C51.3508 43.5163 51.2719 43.9225 51.1075 44.2953C50.9431 44.6748 50.7261 45.0011 50.4499 45.2874C50.1738 45.5736 49.8515 45.7934 49.4833 45.9531C49.1085 46.1129 48.7139 46.1928 48.2996 46.1928C47.8525 46.1928 47.4514 46.1129 47.0765 45.9531C46.7083 45.7934 46.3861 45.5736 46.1099 45.2874C45.8403 45.0011 45.6233 44.6682 45.4654 44.2953C45.3076 43.9158 45.2287 43.5097 45.2287 43.0769V32.6639H44.1371C43.7097 32.6639 43.3086 32.584 42.9469 32.4242C42.5852 32.2644 42.2696 32.0514 42 31.7717C41.7304 31.4988 41.5265 31.1792 41.3753 30.813C41.224 30.4468 41.1517 30.0606 41.1517 29.6545C41.1517 29.2217 41.224 28.8156 41.3753 28.4494C41.5265 28.0832 41.7304 27.7636 42 27.4907C42.263 27.2177 42.5852 27.0046 42.9469 26.8448C43.3086 26.6851 43.7097 26.6052 44.1371 26.6052H45.2287V23.3827C45.2287 22.9433 45.3076 22.5438 45.4654 22.1643C45.6233 21.7915 45.8403 21.4652 46.1099 21.1856C46.3795 20.906 46.7083 20.6862 47.0765 20.5198C47.4514 20.3533 47.8591 20.2735 48.2996 20.2735C48.7205 20.2735 49.1085 20.3533 49.4833 20.5198C49.8515 20.6862 50.1738 20.906 50.4499 21.1856C50.7261 21.4586 50.9431 21.7915 51.1075 22.1643C51.2719 22.5438 51.3508 22.9499 51.3508 23.3827V26.6052H52.5411C52.9553 26.6052 53.3499 26.6851 53.7116 26.8448C54.0732 27.0046 54.3889 27.2177 54.6585 27.4907ZM66.2978 46.1795C64.9694 46.1795 63.7134 45.9199 62.5232 45.4072C61.3396 44.8945 60.3006 44.1888 59.4128 43.2966C58.5251 42.4045 57.8281 41.3592 57.3086 40.1607C56.7957 38.9623 56.5392 37.684 56.5392 36.3191C56.5392 34.9209 56.8022 33.6226 57.3217 32.4176C57.8412 31.2191 58.5514 30.1738 59.4457 29.2883C60.34 28.4028 61.379 27.7104 62.5758 27.1977C63.7661 26.6917 65.0352 26.4387 66.3767 26.4387C67.7181 26.4387 68.9807 26.6784 70.1578 27.1511C71.3349 27.6238 72.3607 28.283 73.2353 29.1219C74.1099 29.9608 74.8003 30.9528 75.3067 32.1113C75.813 33.2631 76.0695 34.5215 76.0695 35.8797C76.0695 36.2991 76.0103 36.6454 75.8919 36.9183C75.7736 37.1913 75.596 37.4044 75.3659 37.5641C75.1291 37.7239 74.8398 37.8305 74.4978 37.8904C74.1493 37.9503 73.7548 37.9769 73.3142 37.9769H62.8191C62.8586 38.3698 62.9835 38.7559 63.1874 39.1354C63.3978 39.5083 63.6543 39.8478 63.9699 40.1474C64.2855 40.447 64.6406 40.6801 65.0418 40.8598C65.4429 41.0396 65.8769 41.1262 66.3306 41.1262C66.7844 41.1262 67.2249 41.0529 67.6392 40.8998C68.0535 40.7466 68.4481 40.5403 68.8097 40.2739C69.1648 40.1008 69.5791 40.0076 70.0723 39.9943C70.5589 39.981 71.0258 40.0609 71.4729 40.2406C71.9135 40.4204 72.2949 40.6934 72.6171 41.0596C72.9394 41.4324 73.0972 41.9051 73.0972 42.4844C73.1103 43.1169 72.9065 43.6695 72.479 44.1355C72.0582 44.6016 71.5124 44.9878 70.8482 45.2807C70.1841 45.5803 69.4476 45.8 68.6388 45.9465C67.8365 46.1063 67.054 46.1795 66.2978 46.1795ZM66.3767 31.4189C65.9492 31.4189 65.5284 31.4921 65.1141 31.6386C64.7064 31.7851 64.3316 31.9914 64.0028 32.2511C63.674 32.5174 63.3912 32.8303 63.1742 33.1899C62.9506 33.5561 62.8125 33.9422 62.7468 34.3683H69.9013C69.8619 33.9489 69.7303 33.5561 69.5133 33.1899C69.2898 32.8303 69.0202 32.5108 68.6914 32.2511C68.3626 31.9848 68.0009 31.7851 67.5998 31.6386C67.1855 31.4921 66.7778 31.4189 66.3767 31.4189ZM79.6138 22.1643C79.456 22.5438 79.3771 22.9499 79.3771 23.3827V43.0769C79.3771 43.5163 79.456 43.9225 79.6138 44.2953C79.7717 44.6748 79.9821 45.0011 80.2583 45.2874C80.5345 45.5736 80.8567 45.7934 81.2381 45.9531C81.6129 46.1129 82.0206 46.1928 82.448 46.1928C82.8689 46.1928 83.2569 46.1129 83.6317 45.9531C84.0065 45.7934 84.3287 45.5736 84.6115 45.2874C84.8942 45.0011 85.1112 44.6682 85.2756 44.2953C85.44 43.9158 85.519 43.5097 85.519 43.0769V23.3827C85.519 22.9433 85.44 22.5438 85.2756 22.1643C85.1112 21.7915 84.8942 21.4652 84.6115 21.1856C84.3287 20.906 83.9999 20.6862 83.6317 20.5198C83.2569 20.3533 82.8623 20.2735 82.448 20.2735C82.0206 20.2735 81.6129 20.3533 81.2381 20.5198C80.8567 20.6862 80.5345 20.906 80.2583 21.1856C79.9887 21.4586 79.7717 21.7915 79.6138 22.1643ZM98.5654 46.1795C97.2371 46.1795 95.9811 45.9199 94.7909 45.4072C93.6073 44.8945 92.5683 44.1888 91.6805 43.2966C90.7928 42.4045 90.0958 41.3592 89.5763 40.1607C89.0633 38.9623 88.8069 37.684 88.8069 36.3191C88.8069 34.9209 89.0699 33.6226 89.5894 32.4176C90.1089 31.2191 90.8191 30.1738 91.7134 29.2883C92.6077 28.4028 93.6467 27.7104 94.8435 27.1977C96.0337 26.6917 97.3029 26.4387 98.6443 26.4387C99.9858 26.4387 101.248 26.6784 102.425 27.1511C103.603 27.6238 104.628 28.283 105.503 29.1219C106.378 29.9608 107.068 30.9528 107.574 32.1113C108.081 33.2631 108.337 34.5215 108.337 35.8797C108.337 36.2991 108.278 36.6454 108.16 36.9183C108.041 37.1913 107.864 37.4044 107.634 37.5641C107.403 37.7239 107.107 37.8305 106.766 37.8904C106.417 37.9503 106.022 37.9769 105.582 37.9769H95.0868C95.1263 38.3698 95.2512 38.7559 95.4616 39.1354C95.6721 39.5083 95.9285 39.8478 96.2442 40.1474C96.5598 40.447 96.9149 40.6801 97.316 40.8598C97.7172 41.0396 98.1512 41.1262 98.6049 41.1262C99.0586 41.1262 99.4992 41.0529 99.9135 40.8998C100.328 40.7466 100.722 40.5403 101.084 40.2739C101.439 40.1008 101.853 40.0076 102.347 39.9943C102.833 39.981 103.3 40.0609 103.741 40.2406C104.181 40.4204 104.563 40.6934 104.885 41.0596C105.207 41.4324 105.365 41.9051 105.365 42.4844C105.378 43.1169 105.174 43.6695 104.747 44.1355C104.326 44.6016 103.78 44.9878 103.116 45.2807C102.452 45.5803 101.715 45.8 100.906 45.9465C100.104 46.1063 99.3217 46.1795 98.5654 46.1795ZM98.6443 31.4189C98.2169 31.4189 97.7961 31.4921 97.3818 31.6386C96.9741 31.7851 96.5993 31.9914 96.2705 32.2511C95.9351 32.5174 95.6589 32.8303 95.4419 33.1899C95.2183 33.5561 95.0803 33.9422 95.0145 34.3683H102.169C102.13 33.9489 101.998 33.5561 101.781 33.1899C101.557 32.8303 101.288 32.5108 100.959 32.2511C100.63 31.9848 100.269 31.7851 99.8675 31.6386C99.4532 31.4921 99.0521 31.4189 98.6443 31.4189ZM128.334 30.4202C128.15 30.0473 127.907 29.6878 127.591 29.3416C127.216 28.9155 126.763 28.5293 126.223 28.1631C125.697 27.8103 125.119 27.504 124.494 27.2443C123.869 26.9847 123.212 26.7916 122.528 26.6518C121.837 26.512 121.147 26.4454 120.443 26.4454C119.102 26.4454 117.839 26.705 116.662 27.2244C115.479 27.7503 114.453 28.4561 113.572 29.3549C112.69 30.2537 111.993 31.299 111.48 32.4908C110.968 33.6826 110.711 34.9609 110.711 36.3191C110.711 37.684 110.968 38.9623 111.48 40.1608C111.993 41.3592 112.69 42.4045 113.572 43.2966C114.453 44.1888 115.485 44.8946 116.662 45.4139C117.839 45.9332 119.102 46.1929 120.443 46.1929C121.627 46.1929 122.719 46.053 123.718 45.7601C124.711 45.4671 125.572 45.081 126.296 44.6016C127.019 44.1156 127.591 43.5696 127.999 42.9571C128.413 42.3446 128.617 41.7054 128.617 41.0463C128.617 40.4537 128.492 39.941 128.229 39.5149C127.966 39.0888 127.618 38.7626 127.19 38.5362C126.736 38.3098 126.256 38.2166 125.757 38.2499C125.25 38.2832 124.797 38.4031 124.395 38.6161C124.034 38.8758 123.639 39.1155 123.225 39.3352C122.811 39.5549 122.37 39.708 121.916 39.8012C121.278 39.9477 120.654 39.981 120.049 39.9077C119.444 39.8345 118.905 39.6547 118.438 39.3551C117.971 39.0622 117.596 38.6561 117.307 38.1501C117.024 37.644 116.879 37.0315 116.879 36.3191C116.879 35.5801 117.03 34.9542 117.34 34.4482C117.649 33.9422 118.043 33.5494 118.523 33.2631C119.01 32.9768 119.549 32.8037 120.147 32.7371C120.752 32.6706 121.344 32.7038 121.929 32.837C122.252 32.9435 122.567 33.0634 122.876 33.2032C123.179 33.343 123.481 33.4828 123.784 33.6293C124.08 33.7758 124.382 33.9089 124.691 34.0354C124.994 34.1619 125.303 34.2618 125.619 34.3417C126.053 34.3817 126.454 34.335 126.822 34.1952C127.19 34.0554 127.506 33.8623 127.769 33.6027C128.032 33.3497 128.236 33.0434 128.387 32.6839C128.538 32.331 128.611 31.9515 128.611 31.5587C128.611 31.1725 128.518 30.7997 128.334 30.4202ZM130.583 36.3058C130.583 34.9609 130.84 33.6892 131.353 32.4841C131.866 31.2857 132.569 30.2404 133.457 29.3482C134.345 28.4561 135.377 27.7503 136.567 27.231C137.751 26.7117 139.014 26.452 140.342 26.452C141.683 26.452 142.946 26.7117 144.136 27.231C145.32 27.7503 146.352 28.4561 147.233 29.3482C148.114 30.2404 148.812 31.2857 149.324 32.4841C149.837 33.6826 150.094 34.9609 150.094 36.3058C150.094 37.664 149.837 38.9423 149.324 40.1474C148.812 41.3459 148.114 42.3912 147.233 43.2833C146.352 44.1755 145.32 44.8812 144.136 45.4006C142.952 45.9199 141.683 46.1795 140.342 46.1795C139.014 46.1795 137.758 45.9199 136.567 45.4006C135.384 44.8812 134.345 44.1755 133.457 43.2833C132.569 42.3912 131.872 41.3459 131.353 40.1474C130.84 38.9423 130.583 37.664 130.583 36.3058ZM136.738 36.3191C136.738 36.8384 136.83 37.3311 137.014 37.7972C137.199 38.2699 137.448 38.676 137.777 39.0289C138.106 39.3818 138.487 39.6547 138.921 39.8611C139.355 40.0675 139.829 40.1674 140.335 40.1674C140.842 40.1674 141.315 40.0675 141.749 39.8611C142.183 39.6547 142.564 39.3818 142.893 39.0289C143.222 38.676 143.472 38.2699 143.656 37.7972C143.84 37.3311 143.932 36.8318 143.932 36.3191C143.932 35.8065 143.84 35.3138 143.656 34.8544C143.472 34.3883 143.222 33.9888 142.893 33.6426C142.564 33.2964 142.183 33.0234 141.749 32.817C141.315 32.6106 140.842 32.5108 140.335 32.5108C139.829 32.5108 139.355 32.6106 138.921 32.817C138.487 33.0234 138.106 33.2964 137.777 33.6426C137.448 33.9888 137.199 34.3883 137.014 34.8544C136.83 35.3138 136.738 35.7998 136.738 36.3191ZM179.744 29.3482C180.382 30.2404 180.849 31.2857 181.158 32.4841C181.461 33.6892 181.618 34.9609 181.632 36.3058V43.1169C181.632 43.523 181.553 43.9158 181.395 44.282C181.237 44.6482 181.027 44.9745 180.757 45.2607C180.487 45.547 180.165 45.7667 179.797 45.9332C179.422 46.0996 179.021 46.1795 178.594 46.1795C178.16 46.1795 177.758 46.0996 177.39 45.9332C177.015 45.7667 176.693 45.547 176.41 45.2674C176.128 44.9878 175.911 44.6615 175.746 44.2887C175.582 43.9092 175.503 43.5097 175.503 43.0903V36.0262C175.503 34.9942 175.319 34.1619 174.964 33.5228C174.602 32.8836 174.01 32.564 173.175 32.564C172.774 32.564 172.412 32.6506 172.09 32.8237C171.774 32.9901 171.505 33.2298 171.281 33.5428C171.064 33.849 170.893 34.2219 170.775 34.648C170.657 35.0807 170.597 35.5468 170.597 36.0461V43.1169C170.597 43.523 170.518 43.9158 170.361 44.282C170.203 44.6482 169.992 44.9745 169.716 45.2607C169.44 45.547 169.118 45.7667 168.756 45.9332C168.394 46.0996 167.993 46.1795 167.566 46.1795C167.132 46.1795 166.731 46.0996 166.363 45.9332C165.988 45.7667 165.665 45.547 165.383 45.2674C165.107 44.9878 164.883 44.6615 164.719 44.2887C164.554 43.9092 164.475 43.5097 164.475 43.0903V36.0262C164.475 34.9942 164.291 34.1619 163.929 33.5228C163.568 32.8836 162.969 32.564 162.134 32.564C161.727 32.564 161.371 32.6506 161.049 32.8237C160.734 32.9901 160.464 33.2298 160.24 33.5428C160.023 33.849 159.852 34.2219 159.734 34.648C159.616 35.0807 159.556 35.5468 159.556 36.0461V43.0769C159.556 43.5164 159.478 43.9225 159.313 44.2953C159.149 44.6748 158.932 45.0011 158.649 45.2874C158.366 45.5737 158.037 45.7934 157.669 45.9532C157.294 46.113 156.9 46.1929 156.486 46.1929C156.058 46.1929 155.65 46.113 155.276 45.9532C154.894 45.7934 154.572 45.5737 154.296 45.2874C154.02 45.0011 153.809 44.6682 153.651 44.2953C153.494 43.9158 153.415 43.5097 153.415 43.0769V28.1498C153.415 27.0113 153.987 26.4454 155.118 26.4454C155.703 26.4454 156.203 26.6385 156.611 27.018C157.005 27.3841 157.308 27.9234 157.525 28.6159C157.913 28.263 158.373 27.9168 158.899 27.5972C159.445 27.271 160.037 26.998 160.681 26.7783C161.325 26.5586 162.003 26.452 162.706 26.452C164.087 26.452 165.271 26.6984 166.264 27.1844C167.079 27.5905 167.75 28.1498 168.329 28.8023C168.355 28.7757 168.38 28.7498 168.405 28.7239C168.454 28.6721 168.504 28.6203 168.565 28.5626C168.96 28.1964 169.42 27.8635 169.946 27.5506C170.472 27.2443 171.064 26.9847 171.715 26.7716C172.366 26.5586 173.044 26.452 173.747 26.452C175.115 26.452 176.292 26.7117 177.292 27.231C178.291 27.7503 179.107 28.4561 179.744 29.3482Z" fill="#2D3131"/>
</svg>
